<svg xmlns="http://www.w3.org/2000/svg" viewBox="0 0 56 48"><defs><linearGradient id="g-fisk" x1="0" y1="0" x2="0" y2="1"><stop offset="0" stop-color="#8FC2CF"></stop><stop offset="1" stop-color="#2E6E80"></stop></linearGradient></defs><g id="orb-fisk">
      <path d="M8 24 C15 14 26 11 33 15 C38 18 41 21 43 24 C41 27 38 30 33 33 C26 37 15 34 8 24 Z" fill="url(#g-fisk)"></path>
      <path d="M43 24 L50 17 L48 24 L50 31 Z" fill="#2E6E80"></path>
      <path d="M24 14 C28 17 28 21 26 24" stroke="#143C48" stroke-opacity="0.5" stroke-width="1.6" fill="none"></path>
      <circle cx="15" cy="21" r="2.6" fill="#F4FBFC"></circle><circle cx="15.7" cy="21.4" r="1.3" fill="#12333E"></circle>
      <path d="M12 16 C17 12 24 11 29 13" stroke="#FFFFFF" stroke-opacity="0.55" stroke-width="1.6" stroke-linecap="round" fill="none"></path>
    </g></svg>