<svg width="34" height="36" viewBox="0 0 34 36" fill="none" xmlns="http://www.w3.org/2000/svg">
<path d="M15.3952 3C14.8138 3 14.357 3.495 14.357 4.125V10.275C14.357 11.805 13.4296 13.095 12.1699 13.575V4.125C12.1699 3.495 11.6993 3 11.1317 3C10.5504 3 10.0936 3.495 10.0936 4.125V13.575C8.82005 13.095 7.90644 11.805 7.90644 10.275V4.125C7.90644 3.495 7.4358 3 6.86826 3C6.28688 3 5.83008 3.495 5.83008 4.125V10.275C5.83008 13.065 7.65728 15.39 10.0936 15.915V31.845C10.0936 32.46 10.5504 32.97 11.1317 32.97C11.6993 32.97 12.1699 32.46 12.1699 31.845V15.915C14.5923 15.39 16.4334 13.065 16.4334 10.275V4.125C16.4334 3.495 15.9628 3 15.3952 3Z" fill="#7F5FC4"/>
<path d="M21.6657 3.03005L21.029 3.04505C20.4614 3.06005 20.0185 3.55505 20.0185 4.17005L19.9077 22.65L19.8662 30.6301C19.8662 31.2751 20.0877 31.8751 20.5168 32.3251C20.9321 32.7601 21.4719 33.0001 22.0395 33.0001H22.1087L23.7144 32.9401C24.891 32.8951 25.8185 31.8751 25.8323 30.5851L25.8738 23.6251H25.9707C27.1473 23.5801 28.0748 22.5451 28.0886 21.2701L28.144 9.88505C28.1578 7.99505 27.4934 6.25505 26.2614 4.95005C25.0294 3.64505 23.4099 3.00005 21.6657 3.03005ZM23.7559 30.57C23.7559 30.63 23.7144 30.6901 23.659 30.6901L22.0395 30.7501L21.9426 30.6451L21.9841 23.7601L23.7975 23.7001L23.7559 30.57Z" fill="#7F5FC4"/>
</svg>
