<svg xmlns="http://www.w3.org/2000/svg" viewBox="0 0 60 54"><defs><linearGradient id="i2-tre" x1="0" y1="0" x2="1" y2="1"><stop offset="0" stop-color="#E6BF86"></stop><stop offset=".5" stop-color="#B98650"></stop><stop offset="1" stop-color="#7A5230"></stop></linearGradient><radialGradient id="i2-stoff" cx=".3" cy=".2" r="1"><stop offset="0" stop-color="#FFFBF2"></stop><stop offset=".5" stop-color="#EAD8BA"></stop><stop offset="1" stop-color="#B9996A"></stop></radialGradient></defs><g id="ico2-interior"><ellipse cx="30" cy="46.5" rx="20" ry="3.4" fill="#06141C" fill-opacity=".45"></ellipse><path d="M13.5 37 L11.5 45.5M46.5 37 L48.5 45.5" stroke="url(#i2-tre)" stroke-width="3.8" stroke-linecap="round"></path><path d="M15 28 V15.6 C15 11.6 17.8 9 22 9 H38 C42.2 9 45 11.6 45 15.6 V28 Z" fill="url(#i2-tre)"></path><path d="M17.6 27 V16.2 C17.6 13.4 19.4 11.8 22.4 11.8 H37.6 C40.6 11.8 42.4 13.4 42.4 16.2 V27 Z" fill="url(#i2-stoff)"></path><path d="M17.6 27 V16.2 C17.6 13.4 19.4 11.8 22.4 11.8 H27 V27 Z" fill="#FFFFFF" fill-opacity=".4"></path><path d="M36 11.8 H37.6 C40.6 11.8 42.4 13.4 42.4 16.2 V27 H36 Z" fill="#5A3C1E" fill-opacity=".16"></path><path d="M30 13 V26" stroke="#785A32" stroke-opacity=".22" stroke-width="1.2" stroke-linecap="round"></path><rect x="10.5" y="26.5" width="39" height="11" rx="5" fill="url(#i2-stoff)"></rect><path d="M10.5 31.5 C18 33.8 42 33.8 49.5 31.5 V33.6 C42 35.9 18 35.9 10.5 33.6 Z" fill="#785C3A" fill-opacity=".22"></path><rect x="12.5" y="27.5" width="14" height="3" rx="1.5" fill="#FFFFFF" fill-opacity=".55"></rect><path d="M9.4 24 V37" stroke="url(#i2-tre)" stroke-width="5.4" stroke-linecap="round"></path><path d="M50.6 24 V37" stroke="url(#i2-tre)" stroke-width="5.4" stroke-linecap="round"></path><path d="M8.6 26 V32" stroke="#FFFFFF" stroke-opacity=".45" stroke-width="1.4" stroke-linecap="round"></path><path d="M49.8 26 V32" stroke="#FFFFFF" stroke-opacity=".25" stroke-width="1.2" stroke-linecap="round"></path></g></svg>