<svg xmlns="http://www.w3.org/2000/svg" viewBox="5 7 60 40"><defs><linearGradient id="ic-fiskkropp" x1="0.2" y1="0" x2="0.6" y2="1"><stop offset="0" stop-color="#B4E4F0"></stop><stop offset="0.45" stop-color="#5EBAD2"></stop><stop offset="1" stop-color="#2E88A4"></stop></linearGradient></defs><g id="ico-fisk" transform="translate(-4,4) scale(.96)">
      <ellipse cx="30" cy="42" rx="19" ry="3.6" fill="rgba(12,28,36,.26)"></ellipse>
      <path d="M40 12 C46 15 49 20 50 24 C46 25 42 24 39 21 Z" fill="#3A9CB8"></path>
      <path d="M8 26 C14 13 28 8 38 13 C45 16.5 49 21 51 26 C49 31 45 35.5 38 39 C28 44 14 39 8 26 Z" fill="url(#ic-fiskkropp)"></path>
      <path d="M8 26 C14 34 26 39 38 36 C44 34.5 48 30 50 26 C48 30 45 34 38 37.5 C27 42.5 14 37.5 8 26 Z" fill="rgba(255,255,255,.6)"></path>
      <path d="M51 26 L62 17 L59 26 L62 35 Z" fill="#3A9CB8"></path>
      <path d="M51 26 L60 19.5 L58 26 Z" fill="#68C2D8"></path>
      <path d="M14 20 C20 15 30 13 37 16" stroke="rgba(255,255,255,.8)" stroke-width="2" stroke-linecap="round" fill="none"></path>
      <path d="M26 15 C31 19 32 25 29 30" stroke="rgba(20,80,100,.3)" stroke-width="1.8" stroke-linecap="round" fill="none"></path>
      <circle cx="17" cy="23" r="3.4" fill="#FFFFFF"></circle>
      <circle cx="17.8" cy="23.5" r="1.7" fill="#123946"></circle>
      <circle cx="16.6" cy="22.2" r="0.8" fill="#FFFFFF"></circle>
    </g></svg>