<svg xmlns="http://www.w3.org/2000/svg" viewBox="0 0 120 62"><defs><linearGradient id="g-skrog" x1="0" y1="0" x2="0" y2="1"><stop offset="0" stop-color="#9A6A42"></stop><stop offset="1" stop-color="#54341E"></stop></linearGradient><linearGradient id="g-seil" x1="0" y1="0" x2="1" y2="1"><stop offset="0" stop-color="#F7F2E8"></stop><stop offset="1" stop-color="#CFC5B0"></stop></linearGradient></defs><g id="langskip3d">
      <path d="M14 40 C30 52 90 52 106 40 L98 52 C82 60 38 60 22 52 Z" fill="url(#g-skrog)"></path>
      <path d="M14 40 C30 46 90 46 106 40" stroke="#B98A5C" stroke-width="2" fill="none" opacity="0.8"></path>
      <path d="M14 40 C8 33 8 25 14 19" stroke="url(#g-skrog)" stroke-width="5" stroke-linecap="round" fill="none"></path>
      <path d="M106 40 C112 33 112 25 106 19" stroke="url(#g-skrog)" stroke-width="5" stroke-linecap="round" fill="none"></path>
      <path d="M60 42 V6" stroke="#3E2C1A" stroke-width="2.5"></path>
      <path d="M42 8 H78 C75 18 75 24 78 32 H42 C45 23 45 17 42 8 Z" fill="url(#g-seil)"></path>
      <path d="M48 8.5 C50 18 50 23 48 31M68 8.5 C70 18 70 23 68 31" stroke="#786446" stroke-opacity=".3" stroke-width="1.2" fill="none"></path>
      <path d="M42 8 C45 17 45 23 42 32" stroke="#503C28" stroke-opacity=".35" stroke-width="2" fill="none"></path>
    </g></svg>