<svg width="28" height="27" viewBox="0 0 28 27" fill="none" xmlns="http://www.w3.org/2000/svg">
<path d="M19.1759 20.8521L5.28323 19.6391V4.51611L19.1759 6.31621V20.8521Z" fill="#A01D1A" stroke="black" stroke-width="0.145312" stroke-miterlimit="10"/>
<path d="M19.1759 20.8532L27.9094 16.0736V2.82031L19.1759 6.31734V20.8532Z" fill="#7F5FC4"/>
<path d="M5.25383 4.44772L13.984 0.782928C13.984 0.782928 13.9915 0.78125 13.9949 0.78125L27.8339 2.80783C27.8548 2.81119 27.8582 2.83971 27.8389 2.84726L19.1808 6.31409C19.1808 6.31409 19.1741 6.31576 19.1708 6.31576L5.25886 4.48714C5.2379 4.48463 5.23454 4.45611 5.25383 4.44772Z" fill="white" stroke="black" stroke-width="0.145312" stroke-miterlimit="10"/>
<path d="M15.9385 22.1812C15.9334 22.7021 15.7138 25.05 15.5377 25.5247C15.1243 26.6387 11.9784 26.2906 11.5222 25.3352C11.2481 24.7614 11.0762 24.2313 11.0846 23.3598C11.1013 21.6167 12.2022 19.9391 13.5421 19.6144C14.882 19.2898 15.9552 20.439 15.9376 22.1821L15.9385 22.1812Z" fill="#A01D1A"/>
<path d="M7.23012 20.4874C7.22509 21.0083 7.00541 23.3561 6.82933 23.8309C6.41597 24.9448 3.27002 24.5967 2.81389 23.6413C2.53971 23.0676 2.36782 22.5374 2.37621 21.6659C2.39298 19.9228 3.49389 18.2452 4.83377 17.9206C6.17365 17.596 7.24689 18.7451 7.22928 20.4882L7.23012 20.4874Z" fill="#A01D1A"/>
<path d="M2.71085 9.85206L6.50913 8.45459L17.9341 9.85206V20.8909L12.2292 23.2589L2.71085 9.85206Z" fill="white" stroke="black" stroke-width="0.145312" stroke-miterlimit="10"/>
<path d="M11.1493 19.0998L1.88667 18.0118C1.28632 17.9414 0.77737 18.1393 0.789109 18.4396L0.926617 21.9442C0.936679 22.2059 1.34501 22.4534 1.8699 22.5146L11.1325 23.6025C11.7328 23.673 12.2418 23.475 12.2301 23.1747L12.0926 19.6702C12.0825 19.4085 11.6742 19.161 11.1493 19.0998Z" fill="#7F5FC4"/>
<path d="M11.0259 20.0062L1.62917 18.8478C1.02044 18.7723 0.607915 18.1893 0.740394 17.5904L2.28989 10.5829C2.4056 10.0587 2.9003 9.70887 3.43273 9.77513L12.8295 10.9335C13.4382 11.009 13.8507 11.592 13.7183 12.1909L12.1688 19.1984C12.0531 19.7227 11.5584 20.0724 11.0259 20.0062Z" fill="white" stroke="black" stroke-width="0.145312" stroke-miterlimit="10"/>
<path d="M12.7699 12.6118C12.8387 12.2964 12.6215 11.9911 12.3021 11.9517L9.23996 11.5742C10.0826 13.1193 11.0251 14.6091 12.0145 16.0736L12.7699 12.6127V12.6118Z" fill="#E8DDF9"/>
<path d="M12.0136 16.0728L12.7691 12.6118C12.8378 12.2964 12.6207 11.9911 12.3012 11.9517L9.23911 11.5742" stroke="black" stroke-width="0.145312" stroke-miterlimit="10"/>
<path d="M4.93619 11.0429L3.59379 10.8777C3.3129 10.8433 3.05214 11.0278 2.99177 11.3046L1.96297 16.0154C1.89421 16.3308 2.11137 16.6361 2.43083 16.6756L9.10255 17.4984C7.8046 15.5037 6.48652 13.4763 5.1349 11.3818C5.07034 11.2694 5.00326 11.1561 4.93619 11.0429Z" fill="#E8DDF9"/>
<path d="M5.13479 11.3818C6.48641 13.4764 7.80449 15.5038 9.10244 17.4985L3.56601 16.8157" stroke="black" stroke-width="0.145312" stroke-miterlimit="10"/>
<path d="M9.70531 22.6341L10.953 22.8346C11.2213 22.8774 11.4393 22.6962 11.4393 22.4286V21.9631C11.4393 21.6955 11.2213 21.4438 10.953 21.4011L9.70531 21.2006C9.437 21.1578 9.21899 21.339 9.21899 21.6066V22.0721C9.21899 22.3397 9.437 22.5913 9.70531 22.6341Z" fill="white" stroke="black" stroke-width="0.145312" stroke-miterlimit="10"/>
<path d="M2.08699 21.6805L3.33464 21.881C3.60295 21.9238 3.82095 21.7426 3.82095 21.475V21.0095C3.82095 20.7419 3.60295 20.4902 3.33464 20.4475L2.08699 20.247C1.81868 20.2042 1.60068 20.3854 1.60068 20.653V21.1185C1.60068 21.3861 1.81868 21.6377 2.08699 21.6805Z" fill="white" stroke="black" stroke-width="0.145312" stroke-miterlimit="10"/>
<path d="M16.9725 11.3677L15.0037 12.0455C14.7916 12.1185 14.6298 12.2913 14.5702 12.5077L13.2111 17.4642C13.1515 17.6807 13.3679 17.8711 13.575 17.7847L17.0898 16.3167C17.1888 16.2756 17.2542 16.1792 17.2559 16.0726L17.3305 11.6278C17.3338 11.4407 17.1502 11.3073 16.9733 11.3677H16.9725Z" stroke="black" stroke-width="0.145312" stroke-miterlimit="10"/>
<path d="M16.8517 14.0743C16.9565 14.4853 17.0261 14.4853 17.3715 14.3008C19.2514 13.2992 20.7154 11.6392 22.607 10.6662C23.287 10.3164 23.7045 10.2895 24.2353 10.9077C24.5229 11.2433 24.6646 11.7457 24.4172 12.1576C24.1254 12.6424 23.4865 12.879 23.0019 13.1012C22.1458 13.493 21.3409 14.013 20.5049 14.4484C19.3587 15.0456 18.1882 15.7712 17.0672 16.3458C16.7159 16.5261 16.2212 16.6738 15.8128 16.8541C15.1211 17.1586 14.4059 17.4614 13.6856 17.6963C13.4316 17.7793 13.0417 17.8959 13.3771 16.9221C13.4567 16.6914 13.4953 16.4574 13.554 16.2267C13.6932 15.6814 13.8575 15.1312 14.0193 14.5918C14.1812 14.0525 14.2239 13.6112 14.7857 13.42" fill="white"/>
<path d="M16.8517 14.0743C16.9565 14.4853 17.0261 14.4853 17.3715 14.3008C19.2514 13.2992 20.7154 11.6392 22.607 10.6662C23.287 10.3164 23.7045 10.2895 24.2353 10.9077C24.5229 11.2433 24.6646 11.7457 24.4172 12.1576C24.1254 12.6424 23.4865 12.879 23.0019 13.1012C22.1458 13.493 21.3409 14.013 20.5049 14.4484C19.3587 15.0456 18.1882 15.7712 17.0672 16.3458C16.7159 16.5261 16.2212 16.6738 15.8128 16.8541C15.1211 17.1586 14.4059 17.4614 13.6856 17.6963C13.4316 17.7793 13.0417 17.8959 13.3771 16.9221C13.4567 16.6914 13.4953 16.4574 13.554 16.2267C13.6932 15.6814 13.8575 15.1312 14.0193 14.5918C14.1812 14.0525 14.2239 13.6112 14.7857 13.42" stroke="black" stroke-width="0.145312" stroke-linecap="round" stroke-linejoin="round"/>
<path d="M16.175 9.31082C16.2907 7.8387 17.1426 6.15184 17.9065 4.91961C18.3005 4.28463 18.76 3.67229 19.3587 3.26463C19.9574 2.85696 20.7187 2.68165 21.3434 2.95846C21.968 3.23527 22.3763 4.03466 22.1416 4.7485C21.9462 5.34405 21.402 5.72236 20.9141 6.08221C19.8089 6.89754 17.5467 9.21771 17.5467 9.21771L17.9735 9.37205C17.9735 9.37205 22.8987 3.7394 24.3032 6.00588C24.6352 6.54105 24.5212 7.52078 24.1162 8.03833C23.7657 8.4871 23.2106 8.65738 22.7 8.83689C21.4725 9.26804 20.12 9.46936 19.0426 10.262C19.3763 10.9281 19.4878 12.2811 19.0812 12.9471C18.6745 13.6131 17.9702 14.0518 17.2508 14.1441C16.5314 14.2372 15.8086 13.9998 15.2477 13.5485C14.893 13.2633 14.5928 12.8817 14.467 12.4178C14.2708 11.6956 14.509 10.944 14.9844 10.3686C15.3038 9.98271 15.7465 9.5675 16.1733 9.34102C16.1733 9.33011 16.175 9.32005 16.1758 9.30914L16.175 9.31082Z" fill="white"/>
<path d="M18.0356 13.872C16.9573 14.351 15.7055 13.9609 15.1446 13.5088" stroke="black" stroke-width="0.145312" stroke-linecap="round" stroke-linejoin="round"/>
<path d="M19.6757 7.6163C21.2361 6.18863 23.4119 4.62005 24.2713 6.00661C24.6034 6.54178 24.4893 7.52151 24.0844 8.03906C23.7339 8.48783 23.1788 8.65811 22.6682 8.83762C21.4407 9.26877 20.0882 9.47008 19.0108 10.2628" stroke="black" stroke-width="0.145312" stroke-linecap="round" stroke-linejoin="round"/>
<path d="M14.9517 10.3702C15.2711 9.98439 15.7139 9.56917 16.1406 9.34269C16.1406 9.33179 16.1423 9.32172 16.1432 9.31082C16.2589 7.83869 17.1108 6.15183 17.8746 4.91961C18.2687 4.28463 18.7282 3.67229 19.3268 3.26463C19.9255 2.85696 20.6868 2.68165 21.3115 2.95846C21.9362 3.23527 22.3445 4.03466 22.1097 4.74849C21.9144 5.34405 21.3702 5.72236 20.8822 6.08221C19.7771 6.89754 17.5149 9.21771 17.5149 9.21771L17.9417 9.37205" stroke="black" stroke-width="0.145312" stroke-linecap="round" stroke-linejoin="round"/>
<path d="M16.6068 12.0967C16.4567 11.9575 16.1465 11.8065 15.9377 11.8208C15.4899 11.8526 15.6602 12.4046 15.8958 12.5723C16.0735 12.6982 16.3267 12.6931 16.5137 12.5598C16.7653 12.3811 16.7418 12.2217 16.6068 12.0967Z" fill="#7F5FC4"/>
<path d="M16.5137 12.5598C16.7652 12.3811 16.7417 12.2217 16.6068 12.0967C16.4567 11.9575 16.1464 11.8065 15.9377 11.8208" fill="#7F5FC4"/>
<path d="M16.5137 12.5598C16.7652 12.3811 16.7417 12.2217 16.6068 12.0967C16.4567 11.9575 16.1464 11.8065 15.9377 11.8208" stroke="black" stroke-width="0.145312" stroke-linecap="round" stroke-linejoin="round"/>
<path d="M17.4328 10.8373C17.6189 10.6251 17.9199 10.5421 18.1631 10.636C18.1689 10.6385 18.1757 10.6427 18.1748 10.6494C18.174 10.6561 18.1614 10.6494 18.1673 10.6469" fill="white"/>
<path d="M17.4328 10.8373C17.6189 10.6251 17.9199 10.5421 18.1631 10.636C18.1689 10.6385 18.1757 10.6427 18.1748 10.6494C18.174 10.6561 18.1614 10.6494 18.1673 10.6469" stroke="black" stroke-width="0.145312" stroke-linecap="round" stroke-linejoin="round"/>
<path d="M15.8161 10.2802C16.0022 10.068 16.3033 9.98493 16.5464 10.0789C16.5523 10.0814 16.559 10.0856 16.5582 10.0923C16.5573 10.099 16.5447 10.0923 16.5506 10.0898" fill="white"/>
<path d="M15.8161 10.2802C16.0022 10.068 16.3033 9.98493 16.5464 10.0789C16.5523 10.0814 16.559 10.0856 16.5582 10.0923C16.5573 10.099 16.5447 10.0923 16.5506 10.0898" stroke="black" stroke-width="0.145312" stroke-linecap="round" stroke-linejoin="round"/>
<path d="M19.6086 8.838C20.6123 7.87923 21.6847 7.01441 22.9189 6.50106C23.012 6.46247 23.1101 6.43815 23.2073 6.43899C23.8706 6.44066 23.5964 7.35665 23.2635 7.6452C22.9994 7.8742 22.6665 7.97486 22.3471 8.08055C21.4801 8.36742 20.6315 8.73986 19.8182 9.19114C19.6044 9.30942 19.4267 9.01164 19.6086 8.83884V8.838Z" fill="#E8DDF9"/>
<path d="M17.8738 7.48012C18.6376 6.73274 19.6404 5.78739 20.297 5.30256L20.364 5.25307C20.6919 5.01233 21.0633 4.73887 21.1396 4.50652C21.1924 4.34547 21.0491 4.04349 20.8244 3.94367C20.8076 3.93612 20.7891 3.92941 20.7715 3.92354C20.4764 3.82205 20.0672 3.91096 19.7058 4.15757C19.3226 4.41844 18.9688 4.8303 18.558 5.49297C18.1739 6.11201 17.8536 6.71009 17.6046 7.27042C17.5208 7.45832 17.7287 7.62105 17.8729 7.48012H17.8738Z" fill="#E8DDF9"/>
<path d="M19.9163 12.1601C19.7319 12.7699 19.2321 13.2732 18.6578 13.43C18.5077 13.4711 18.314 13.4686 18.2528 13.321C18.2302 13.2665 18.2318 13.2027 18.2335 13.1423C18.2419 12.8798 18.2855 12.5577 18.5127 12.4478C18.5488 12.4302 18.5907 12.4176 18.6133 12.3815C18.6318 12.3522 18.6326 12.3144 18.6318 12.28C18.6268 11.9395 18.6226 11.5997 18.6175 11.2592C18.0306 11.5897 17.3397 11.4261 16.7385 11.2072C16.1969 11.0101 15.6393 10.7483 15.3366 10.2316C15.298 10.1662 14.5526 11.208 14.4218 11.7121C14.2432 11.7499 14.1619 11.4941 14.1661 11.3003C14.1778 10.7618 14.3271 10.2191 14.592 9.74596C14.9366 9.13279 15.5739 8.61272 16.2044 8.73267C16.1742 9.01284 16.139 9.19989 16.3201 9.30642C16.5012 9.41211 16.7335 9.37437 16.9347 9.293C17.1359 9.21164 17.328 9.09252 17.5351 9.03716C17.743 8.9818 17.9836 9.00529 18.117 9.17305C18.1128 9.31817 17.7832 9.60336 17.8042 9.74512C17.8118 9.79545 17.8461 9.8332 17.8805 9.86675C18.3266 10.2979 19.2086 10.0261 19.6103 10.4522C19.9809 10.8457 20.1016 11.6182 19.9146 12.1609L19.9163 12.1601Z" fill="#7F5FC4"/>
<path d="M17.8821 9.8667C18.3282 10.2979 19.2103 10.0261 19.6119 10.4522C19.9825 10.8456 20.1033 11.6181 19.9163 12.1609C19.7318 12.7707 19.2321 13.274 18.6577 13.4308C18.5076 13.4719 18.314 13.4694 18.2527 13.3218C18.2301 13.2673 18.2318 13.2035 18.2335 13.1431" stroke="black" stroke-width="0.145312" stroke-linecap="round" stroke-linejoin="round"/>
<path d="M17.5367 9.03706C17.7446 8.9817 17.9853 9.00518 18.1186 9.17295" stroke="black" stroke-width="0.145312" stroke-linecap="round" stroke-linejoin="round"/>
<path d="M15.3366 10.2316C15.298 10.1662 14.5526 11.208 14.4218 11.7121C14.2432 11.7499 14.1619 11.4941 14.1661 11.3003C14.1778 10.7618 14.3271 10.2191 14.592 9.74596C14.9366 9.13279 15.5739 8.61272 16.2044 8.73267C16.1742 9.01284 16.139 9.19989 16.3201 9.30642" stroke="black" stroke-width="0.145312" stroke-linecap="round" stroke-linejoin="round"/>
<path d="M18.6133 12.3811C18.6317 12.3517 18.6326 12.314 18.6317 12.2796C18.6267 11.939 18.6225 11.5993 18.6175 11.2587C18.0825 11.6236 17.0747 11.372 16.3326 11.0591" stroke="black" stroke-width="0.145312" stroke-linecap="round" stroke-linejoin="round"/>
<path d="M14.6062 9.73639C14.8108 9.37234 15.1252 9.04269 15.4782 8.87744C15.1957 9.39247 14.9844 10.0048 14.981 10.5836C14.7672 10.8956 14.4737 11.3947 14.405 11.6615C14.2364 11.6967 14.2012 11.3838 14.2046 11.201C14.2155 10.6935 14.3563 10.1818 14.6062 9.73639Z" fill="#A01D1A"/>
<path d="M19.8802 12.1939C19.7049 12.7718 19.232 13.2483 18.6879 13.3968C18.5453 13.4353 18.3626 13.4328 18.3039 13.2936C18.2821 13.2424 18.2837 13.182 18.2854 13.1241C18.2938 12.875 18.3349 12.5705 18.5495 12.4665C18.5839 12.4497 18.6233 12.438 18.6451 12.4036C18.6627 12.3759 18.6627 12.3398 18.6627 12.3071C18.661 12.2031 18.6594 12.0991 18.6585 11.9951C19.0669 11.6596 19.4324 11.2183 19.7594 10.8115C19.9749 11.2074 20.0252 11.7736 19.8802 12.1939Z" fill="#A01D1A"/>
<path d="M17.5337 12.098C17.5819 11.9129 17.5538 11.7453 17.4709 11.7237C17.388 11.702 17.2817 11.8346 17.2335 12.0198C17.1853 12.2049 17.2134 12.3725 17.2962 12.3941C17.3791 12.4157 17.4855 12.2832 17.5337 12.098Z" fill="#333333" stroke="black" stroke-width="0.145312" stroke-linecap="round" stroke-linejoin="round"/>
<path d="M15.7958 11.5476C15.8597 11.3791 15.8505 11.2193 15.7751 11.1907C15.6998 11.1621 15.5869 11.2755 15.523 11.444C15.459 11.6124 15.4683 11.7722 15.5436 11.8008C15.6189 11.8294 15.7318 11.7161 15.7958 11.5476Z" fill="#333333" stroke="black" stroke-width="0.145312" stroke-linecap="round" stroke-linejoin="round"/>
<path d="M15.5109 12.8228C15.3969 13.066 15.5595 13.6121 15.874 13.6381C16.0098 13.649 16.1498 13.5316 16.2605 13.4644C16.3033 13.4384 16.3804 13.4124 16.3896 13.3613C16.2303 13.3118 15.9805 13.0819 15.9402 12.9092C15.9293 12.8991 15.9343 12.9133 15.9243 12.9192" fill="#A01D1A"/>
<path d="M15.5109 12.8228C15.3969 13.066 15.5595 13.6121 15.874 13.6381C16.0098 13.649 16.1498 13.5316 16.2605 13.4644C16.3033 13.4384 16.3804 13.4124 16.3896 13.3613C16.2303 13.3118 15.9805 13.0819 15.9402 12.9092C15.9293 12.8991 15.9343 12.9133 15.9243 12.9192" stroke="black" stroke-width="0.145312" stroke-miterlimit="10"/>
<path d="M17.229 13.0583C17.1082 13.3083 16.803 13.4442 16.5297 13.3955C16.2563 13.3469 16.0258 13.133 15.926 12.8738C15.7356 12.9811 15.4631 12.8947 15.3692 12.6968" stroke="black" stroke-width="0.145312" stroke-linecap="round" stroke-linejoin="round"/>
<path opacity="0.7" d="M16.6588 10.9378C16.8315 11.8253 17.0428 12.7203 17.3027 13.5927C16.9665 13.6271 16.6605 13.6195 16.3812 13.5826C16.1431 12.5878 16.0224 11.5577 15.9176 10.5234C16.1507 10.7004 16.3972 10.8372 16.6588 10.9378Z" fill="white"/>
<path opacity="0.5" d="M18.8908 11.3184C18.8925 11.7513 18.8615 12.3368 18.8439 12.8333C18.8346 13.0925 18.6661 13.3249 18.4322 13.4004C15.9268 14.2014 14.6213 12.9793 14.1308 12.33C13.9824 12.1329 13.979 11.846 14.1249 11.628L15.1202 10.1407C15.2082 10.0166 15.3743 9.99478 15.4715 10.0971C16.3167 10.9863 17.3715 11.2371 18.6435 11.0844C18.7776 11.0685 18.8908 11.175 18.8908 11.3184Z" fill="white" stroke="black" stroke-width="0.145312" stroke-linecap="round" stroke-linejoin="round"/>
<path d="M14.7412 13.28C14.628 13.1634 14.358 13.3765 14.358 13.3765L13.9899 14.4585C13.9899 14.4585 14.5575 15.6044 14.8493 16.1253C14.9868 16.371 15.0061 16.5313 15.2543 16.4121C15.7406 16.1781 16.0961 15.6136 16.4206 15.2042C16.5632 15.0247 16.8751 14.7328 16.9396 14.5022C16.9707 14.3914 16.9648 14.1423 16.8793 14.0291C16.0333 13.9536 15.2568 13.7875 14.742 13.2808L14.7412 13.28Z" fill="#7F5FC4"/>
<path d="M23.4395 11.4964C23.4345 11.4905 23.3942 11.4536 23.3917 11.4553V11.4569C23.3481 11.3991 23.3037 11.3487 23.2475 11.3068C23.1201 11.1952 22.9373 11.16 22.7755 11.2279C22.7713 11.2296 22.7671 11.2321 22.7629 11.2338C22.7545 11.2363 22.7461 11.2372 22.7386 11.2397C22.6379 11.2741 22.5667 11.3118 22.4862 11.3747C22.4828 11.3773 22.4803 11.3789 22.4778 11.3814C22.4744 11.3831 22.4669 11.3873 22.4518 11.3957C22.409 11.4217 22.3671 11.4536 22.3302 11.4863C22.2263 11.5786 22.1357 11.7262 22.0913 11.8579C22.0233 12.0584 22.0737 12.3092 22.2363 12.4518C22.3772 12.5751 22.5507 12.6145 22.7335 12.5969C23.0262 12.5692 23.3523 12.3855 23.5125 12.1339C23.6408 11.9317 23.6039 11.6658 23.4395 11.4964Z" fill="#E8DDF9"/>
<path d="M15.8162 18.2637C15.5512 18.3065 15.386 18.1606 15.4724 17.8393C15.5822 17.43 16.6496 17.0651 17.0177 17.0475C17.5392 17.0223 17.2793 17.8225 17.0563 17.7353" stroke="black" stroke-width="0.145312" stroke-miterlimit="10"/>
<path d="M17.7907 22.229C17.7907 23.9721 16.7066 25.6598 15.3701 25.9987C14.0327 26.3367 12.9494 25.1985 12.9494 23.4546C12.9494 21.7107 14.0335 20.0238 15.3701 19.6849C16.7074 19.3469 17.7907 20.4851 17.7907 22.229Z" fill="#7F5FC4"/>
<path d="M12.9494 23.4547C12.9494 21.7117 14.0335 20.024 15.3701 19.6851C16.0383 19.5156 16.6437 19.7161 17.0822 20.1766" stroke="black" stroke-width="0.145312" stroke-miterlimit="10"/>
<path d="M15.1906 24.6198C14.706 24.6198 14.3547 24.0645 14.3547 23.3004C14.3547 22.303 14.9793 21.2705 15.692 21.0901C15.7583 21.0733 15.8237 21.0649 15.8849 21.0649C16.3695 21.0649 16.7208 21.6202 16.7208 22.3844C16.7208 23.3818 16.0962 24.4143 15.3835 24.5947C15.3172 24.6115 15.2518 24.6198 15.1906 24.6198Z" fill="white" stroke="black" stroke-width="0.145312" stroke-miterlimit="10"/>
<path d="M25.4552 18.6196C25.451 19.0575 25.2665 21.0304 25.1189 21.4296C24.7718 22.3666 22.1273 22.073 21.7441 21.2703C21.5135 20.7879 21.3693 20.3425 21.3768 19.6094C21.3911 18.144 22.3159 16.7348 23.4428 16.4613C24.5697 16.1879 25.4711 17.1542 25.4568 18.6196H25.4552Z" fill="#A01D1A"/>
<path d="M27.0131 18.6618C27.0131 20.1272 26.1025 21.5456 24.9781 21.83C23.8545 22.1144 22.9431 21.1573 22.9431 19.6919C22.9431 18.2264 23.8537 16.808 24.9781 16.5236C26.1016 16.2393 27.0131 17.1964 27.0131 18.6618Z" fill="#7F5FC4"/>
<path d="M24.8271 20.6685C24.4196 20.6685 24.1245 20.2021 24.1245 19.5596C24.1245 18.7216 24.6494 17.8535 25.248 17.7016C25.3042 17.6874 25.3587 17.6807 25.4107 17.6807C25.8182 17.6807 26.1133 18.147 26.1133 18.7896C26.1133 19.6276 25.5885 20.4957 24.9898 20.6476C24.9336 20.6618 24.8791 20.6685 24.8271 20.6685Z" fill="white" stroke="black" stroke-width="0.145312" stroke-miterlimit="10"/>
</svg>
